<svg id="Layer_1" data-name="Layer 1" xmlns="http://www.w3.org/2000/svg" viewBox="0 0 32.1 26.1"><defs><style>.cls-1{fill:#fff;}</style></defs><title>icon-twitter</title><path class="cls-1" d="M32,3.1a11.84,11.84,0,0,1-3.8,1A6.46,6.46,0,0,0,31.1.5a12.61,12.61,0,0,1-4.2,1.6A6.27,6.27,0,0,0,22.2,0a6.59,6.59,0,0,0-6.6,6.6,7.72,7.72,0,0,0,.2,1.5A18.85,18.85,0,0,1,2.2,1.2a6.29,6.29,0,0,0-.9,3.3A6.77,6.77,0,0,0,4.2,10a6.11,6.11,0,0,1-3-.8V9.3a6.54,6.54,0,0,0,5.3,6.4,9.85,9.85,0,0,1-1.7.2,4.87,4.87,0,0,1-1.2-.1,6.68,6.68,0,0,0,6.1,4.6,12.92,12.92,0,0,1-8.2,2.8,8.6,8.6,0,0,1-1.6-.1,18.44,18.44,0,0,0,10.1,3c12.1,0,18.7-10,18.7-18.7V6.6A15.62,15.62,0,0,0,32,3.1Z" transform="translate(0.1)"/></svg>