<svg id="Layer_1" data-name="Layer 1" xmlns="http://www.w3.org/2000/svg" viewBox="0 0 32 31.8"><defs><style>.cls-1{fill:#fff;}</style></defs><title>icon-google-plus</title><path class="cls-1" d="M17.7,25.7a2.2,2.2,0,0,0-.1-0.8c-0.1-.2-0.1-0.5-0.2-0.7a4.88,4.88,0,0,1-.3-0.7,2.09,2.09,0,0,1-.4-0.6c-0.1-.2-0.3-0.3-0.5-0.6l-0.5-.5a3.81,3.81,0,0,0-.6-0.5,2.88,2.88,0,0,0-.6-0.4,2.88,2.88,0,0,1-.6-0.4,2.88,2.88,0,0,0-.6-0.4h-1a12.75,12.75,0,0,0-2,.1,8,8,0,0,0-2.1.5,6.63,6.63,0,0,0-1.9.9A3.48,3.48,0,0,0,5,23a4.65,4.65,0,0,0-.5,2.1,3.51,3.51,0,0,0,.7,2.3A5.48,5.48,0,0,0,7,29a9.17,9.17,0,0,0,2.3.9,9.86,9.86,0,0,0,2.4.3,15,15,0,0,0,2.2-.2,6.39,6.39,0,0,0,1.9-.8,3.16,3.16,0,0,0,1.4-1.4A4.65,4.65,0,0,0,17.7,25.7ZM15.4,9.1a11.34,11.34,0,0,0-.3-2.5,10.64,10.64,0,0,0-.9-2.5,5.26,5.26,0,0,0-1.6-2,4,4,0,0,0-2.3-.8A3.29,3.29,0,0,0,7.5,2.6a4.9,4.9,0,0,0-1,3.2,13.66,13.66,0,0,0,.2,1.9,8,8,0,0,0,.7,2,7.84,7.84,0,0,0,1.1,1.8A4.71,4.71,0,0,0,10,12.8a4.14,4.14,0,0,0,1.9.5,3.16,3.16,0,0,0,2.7-1.2A5.1,5.1,0,0,0,15.4,9.1ZM12.9,0h8.4L18.7,1.5H16.1a6.11,6.11,0,0,1,2.1,2.4A7.22,7.22,0,0,1,19,7.1a6.57,6.57,0,0,1-.4,2.5,7.84,7.84,0,0,1-1.1,1.8,7.41,7.41,0,0,1-1.3,1.2,12,12,0,0,0-1.1,1.2,2,2,0,0,0-.4,1.3,1.93,1.93,0,0,0,.3,1,6.47,6.47,0,0,0,.8.9,10.63,10.63,0,0,0,1.1.9A12,12,0,0,1,18.1,19a6.89,6.89,0,0,1,1.1,1.3,8,8,0,0,1,.8,1.6,6.45,6.45,0,0,1,.3,2,6.81,6.81,0,0,1-2.7,5.4C15.7,31,13,31.8,9.5,31.8a17.85,17.85,0,0,1-2.3-.2A8.65,8.65,0,0,1,4.9,31a10.34,10.34,0,0,1-2.1-1.1,5,5,0,0,1-1.5-1.7A4.77,4.77,0,0,1,.8,26a5.65,5.65,0,0,1,.7-2.6,6,6,0,0,1,1.8-2.1,9.2,9.2,0,0,1,2.8-1.4c1-.3,2-0.5,3-0.7l2.9-.3A5,5,0,0,1,10.8,16V15.5c0-.1.1-0.3,0.1-0.4a1.42,1.42,0,0,1,.2-0.4,0.76,0.76,0,0,0,.1-0.4,6.64,6.64,0,0,1-1.3.1A6.87,6.87,0,0,1,5,12.5,6,6,0,0,1,3,7.8,7.17,7.17,0,0,1,4.8,3,8.54,8.54,0,0,1,9.3.4,14.72,14.72,0,0,1,12.9,0ZM32.8,4.9V7.4H27.9v4.9H25.4V7.4H20.5V4.9h4.9V0h2.5V4.9h4.9Z" transform="translate(-0.8)"/></svg>