<svg id="Layer_1" data-name="Layer 1" xmlns="http://www.w3.org/2000/svg" viewBox="0 0 139.54 139.54"><defs><style>.cls-1{fill:#fff;}</style></defs><title>pinterest-icon-white</title><path class="cls-1" d="M420.95,227.87a69.77,69.77,0,0,0-28,133.67,61.26,61.26,0,0,1,1.21-16c1.34-5.66,9-38,9-38a26.8,26.8,0,0,1-2.23-11c0-10.34,6-18.06,13.46-18.06,6.35,0,9.41,4.77,9.41,10.47,0,6.38-4.07,15.92-6.16,24.76-1.75,7.4,3.71,13.44,11,13.44,13.22,0,22.12-17,22.12-37.09,0-15.29-10.3-26.74-29-26.74-21.16,0-34.35,15.78-34.35,33.41,0,6.08,1.79,10.37,4.6,13.68,1.29,1.53,1.47,2.14,1,3.89-0.33,1.28-1.1,4.38-1.42,5.6a2.4,2.4,0,0,1-3.49,1.75c-9.75-4-14.29-14.66-14.29-26.66,0-19.82,16.71-43.58,49.86-43.58,26.64,0,44.17,19.28,44.17,40,0,27.37-15.22,47.82-37.65,47.82-7.53,0-14.62-4.07-17-8.7,0,0-4.05,16.07-4.91,19.18a58.45,58.45,0,0,1-7,14.95A69.77,69.77,0,1,0,420.95,227.87Z" transform="translate(-351.18 -227.87)"/></svg>